<?xml version="1.0" standalone="no"?>
<!DOCTYPE svg PUBLIC "-//W3C//DTD SVG 20010904//EN"
 "http://www.w3.org/TR/2001/REC-SVG-20010904/DTD/svg10.dtd">
<svg version="1.0" xmlns="http://www.w3.org/2000/svg"
 width="1168.000000pt" height="1168.000000pt" viewBox="0 0 1168.000000 1168.000000"
 preserveAspectRatio="xMidYMid meet">
<metadata>
Created by potrace 1.11, written by Peter Selinger 2001-2013
</metadata>
<g transform="translate(0.000000,1168.000000) scale(0.100000,-0.100000)"
fill="#000000" stroke="none">
<path d="M5398 9971 c-24 -47 -41 -87 -40 -89 2 -3 -1 -8 -6 -11 -8 -5 -39
-59 -45 -78 -1 -4 -64 -131 -139 -281 -76 -150 -139 -280 -140 -289 -2 -10 6
-17 22 -19 59 -10 352 -100 417 -130 17 -8 33 -14 36 -14 3 0 18 -5 34 -12 15
-6 30 -12 33 -13 11 -4 48 -19 89 -37 24 -11 47 -16 51 -11 4 4 -3 49 -15 98
-49 202 -60 251 -61 265 -1 8 -4 22 -8 30 -3 8 -11 38 -16 65 -17 84 -21 99
-26 117 -3 9 -7 27 -9 40 -2 13 -9 41 -14 63 -6 22 -19 81 -31 130 -11 50 -23
101 -27 115 -3 14 -7 32 -8 40 -5 45 -28 107 -40 107 -8 0 -33 -39 -57 -86z"/>
<path d="M4958 9093 c-55 -107 -55 -108 -6 -128 24 -9 43 -16 43 -15 0 11 256
-139 282 -166 8 -8 20 -14 28 -14 7 0 15 -3 17 -7 2 -5 37 -33 78 -65 41 -31
85 -65 96 -75 12 -10 47 -40 77 -66 68 -58 140 -130 227 -226 35 -39 69 -71
73 -71 5 0 6 15 2 33 -4 17 -8 43 -10 57 -2 14 -10 51 -19 82 -9 32 -18 72
-21 90 -3 18 -11 51 -16 73 -6 22 -13 49 -15 60 -3 17 -10 48 -20 88 -1 4 -3
10 -4 15 -1 4 -3 12 -4 17 -7 40 -28 122 -34 132 -8 12 -192 95 -192 86 0 -3
-6 -1 -12 4 -7 6 -31 16 -53 23 -22 7 -45 16 -50 21 -6 4 -22 10 -35 12 -14 3
-38 10 -55 17 -16 6 -37 13 -45 15 -8 2 -46 13 -85 25 -112 34 -175 50 -194
50 -13 0 -30 -22 -53 -67z"/>
<path d="M11590 9088 c-36 -11 -71 -25 -78 -30 -7 -6 -15 -8 -19 -5 -3 4 -12
2 -19 -3 -6 -6 -20 -13 -30 -15 -24 -5 -142 -44 -169 -56 -11 -4 -47 -17 -80
-28 -33 -11 -100 -34 -150 -51 -49 -18 -94 -33 -100 -34 -5 -2 -17 -6 -25 -9
-8 -3 -69 -24 -135 -47 -66 -22 -126 -43 -133 -45 -7 -2 -13 -4 -15 -4 -1 0
-27 -9 -57 -21 -30 -12 -59 -23 -65 -24 -5 -1 -35 -11 -65 -21 -30 -11 -57
-20 -60 -20 -3 -1 -12 -4 -20 -8 -33 -13 -166 -59 -180 -62 -8 -2 -53 -18
-100 -35 -47 -17 -92 -33 -100 -34 -8 -2 -141 -48 -295 -101 -154 -53 -352
-122 -440 -152 -88 -30 -176 -60 -195 -68 -19 -8 -46 -17 -60 -20 -14 -3 -34
-10 -45 -15 -11 -5 -76 -27 -145 -50 -69 -23 -134 -45 -145 -50 -11 -5 -56
-20 -100 -35 -44 -15 -87 -30 -95 -33 -8 -3 -19 -7 -25 -7 -5 -1 -22 -7 -36
-12 -14 -6 -79 -29 -145 -51 -162 -55 -356 -122 -374 -129 -8 -3 -19 -7 -25
-9 -18 -5 -509 -174 -525 -181 -8 -3 -17 -7 -20 -7 -12 -3 -70 -29 -70 -32 0
-2 13 -25 28 -51 44 -75 142 -285 142 -304 0 -4 11 -32 24 -61 13 -29 29 -73
37 -98 7 -25 16 -49 20 -55 4 -5 7 -12 7 -15 0 -3 5 -25 12 -50 7 -25 12 -47
12 -50 0 -3 7 -25 14 -50 14 -48 50 -205 58 -255 13 -81 18 -113 21 -150 2
-22 6 -62 9 -90 4 -27 8 -90 11 -139 2 -56 9 -92 17 -97 11 -7 88 43 96 63 2
5 7 8 11 8 6 0 359 260 611 451 14 11 133 100 265 198 132 99 245 184 252 190
7 6 16 11 22 11 5 0 11 4 13 9 2 4 129 102 283 217 154 114 289 216 299 226
11 10 23 18 27 18 4 0 14 6 21 13 7 6 67 52 133 101 66 50 125 94 130 98 12
10 83 63 290 216 83 61 157 118 166 127 9 8 19 15 22 15 4 0 15 7 24 15 10 8
241 182 513 385 272 204 503 377 513 385 9 8 22 15 27 15 6 0 10 5 10 10 0 6
7 10 15 10 8 0 15 4 15 9 0 5 20 23 45 40 25 17 51 35 58 41 6 6 30 24 52 41
22 16 47 36 56 43 9 7 22 15 30 18 7 2 9 7 4 10 -6 3 -39 -3 -75 -14z"/>
<path d="M4858 8892 c-13 -26 -26 -48 -30 -50 -5 -2 -8 -9 -8 -15 0 -15 -303
-621 -312 -625 -5 -2 -8 -8 -8 -14 0 -6 -61 -132 -135 -280 -128 -254 -134
-268 -109 -264 14 3 32 10 40 17 8 6 14 8 14 3 0 -5 4 -4 8 1 9 13 185 101
195 97 4 -1 7 2 7 6 0 5 10 13 23 19 25 12 26 11 126 -75 69 -60 94 -81 131
-112 16 -14 51 -44 77 -67 27 -24 51 -43 56 -43 14 0 7 -29 -11 -47 -10 -10
-65 -72 -122 -138 -57 -66 -111 -127 -119 -136 -9 -9 -36 -40 -61 -70 -41 -49
-91 -106 -145 -165 -11 -12 -38 -44 -60 -70 -22 -26 -47 -55 -55 -64 -57 -60
-140 -159 -140 -167 0 -5 28 -30 63 -55 34 -25 72 -54 84 -65 11 -10 31 -25
43 -33 30 -20 120 -91 144 -112 11 -10 28 -20 38 -24 10 -3 18 -9 18 -13 0 -5
18 -20 40 -35 37 -25 49 -34 100 -76 10 -9 55 -42 99 -75 45 -33 81 -63 81
-67 0 -4 6 -8 13 -8 6 0 27 -14 45 -31 17 -16 32 -27 32 -23 0 4 6 1 13 -8 6
-8 57 -49 112 -91 227 -171 276 -210 414 -334 127 -113 190 -166 214 -179 20
-11 25 -5 78 85 61 101 214 399 214 416 1 6 6 20 13 32 7 12 12 28 12 37 0 8
3 16 8 18 6 3 49 112 57 148 2 8 13 42 25 75 11 33 20 61 20 63 -1 1 5 26 14
55 12 43 34 153 61 302 23 130 24 456 1 590 -4 25 -16 25 -85 3 -55 -18 -63
-18 -68 5 -9 42 -35 155 -39 172 -5 19 -9 38 -18 80 -3 11 -19 81 -36 155 -18
74 -33 142 -35 150 -2 8 -10 44 -19 80 -8 36 -23 99 -32 140 -23 100 -53 154
-143 260 -116 136 -211 223 -454 416 -9 8 -20 14 -23 14 -3 0 -12 6 -19 13
-29 26 -44 37 -49 37 -3 0 -44 25 -91 56 -47 31 -91 57 -98 58 -7 1 -34 13
-62 26 -51 23 -77 34 -107 44 -13 4 -23 -7 -40 -42z"/>
<path d="M4497 7715 c-27 -13 -54 -29 -61 -34 -7 -6 -15 -9 -18 -6 -3 3 -11
-1 -18 -10 -7 -8 -19 -15 -27 -15 -8 0 -27 -8 -41 -19 -15 -10 -44 -24 -64
-32 -21 -7 -38 -16 -38 -20 0 -4 -9 -9 -19 -12 -13 -3 -44 -53 -93 -148 -40
-79 -75 -151 -77 -159 -2 -8 -6 -17 -10 -20 -8 -6 -111 -218 -110 -226 0 -4
-3 -10 -8 -13 -5 -3 -27 -43 -48 -88 l-40 -83 -525 0 c-400 -1 -529 -4 -540
-13 -8 -7 -44 -46 -80 -87 -36 -41 -69 -80 -75 -86 -5 -6 -37 -42 -70 -79 -33
-38 -69 -79 -80 -91 -11 -12 -45 -50 -75 -85 -30 -34 -60 -67 -65 -73 -6 -6
-61 -69 -124 -140 l-113 -128 28 -25 c16 -13 54 -46 84 -73 30 -27 77 -68 104
-92 27 -24 61 -54 75 -67 14 -13 51 -44 80 -70 30 -25 68 -59 85 -74 16 -15
52 -47 79 -70 28 -23 62 -53 77 -67 15 -14 54 -47 86 -75 32 -27 77 -67 100
-87 23 -21 48 -38 57 -38 14 0 65 48 124 116 10 12 66 73 125 135 58 63 119
128 134 145 16 17 72 77 124 134 52 56 97 106 98 111 8 21 36 5 101 -58 38
-38 236 -232 441 -433 619 -607 574 -564 824 -783 12 -10 41 -36 66 -57 25
-21 61 -53 80 -70 l35 -31 -26 -22 c-54 -45 -70 -58 -189 -146 -67 -50 -126
-91 -131 -91 -5 0 -9 -4 -9 -9 0 -5 -13 -14 -30 -21 -16 -7 -30 -16 -30 -19 0
-4 -17 -17 -37 -28 -100 -54 -138 -78 -141 -85 -2 -4 -9 -8 -16 -8 -7 0 -45
-18 -85 -39 -39 -22 -71 -37 -71 -35 0 2 -11 -3 -25 -12 -14 -9 -25 -13 -25
-9 0 4 -6 3 -12 -2 -16 -12 -101 -44 -109 -40 -3 1 -13 -4 -23 -12 -17 -14
-24 -10 339 -211 106 -58 139 -77 180 -100 22 -13 60 -34 85 -47 25 -13 52
-28 60 -33 8 -5 51 -29 95 -53 44 -25 96 -53 115 -64 274 -154 313 -171 346
-151 5 4 41 14 79 22 178 41 395 120 582 211 73 36 137 65 143 65 9 0 127 -98
186 -154 6 -6 32 -28 58 -50 26 -21 67 -57 92 -80 43 -40 69 -63 163 -143 43
-37 176 -163 286 -269 59 -58 81 -59 65 -3 -6 18 -13 48 -16 64 -3 17 -12 57
-20 90 -9 33 -17 67 -19 75 -5 24 -13 58 -41 175 -14 61 -28 119 -30 130 -2
11 -8 40 -15 65 -6 25 -13 56 -15 69 -3 13 -9 32 -14 41 -5 10 -7 19 -5 22 3
3 -2 27 -10 54 -8 27 -14 49 -14 49 1 0 -14 74 -16 85 -1 3 -5 19 -9 35 -4 17
-11 44 -16 60 -5 17 -11 47 -14 69 -4 21 -8 41 -11 45 -2 4 -6 18 -9 32 -3 13
-7 33 -10 44 -2 11 -10 43 -16 70 -6 28 -14 59 -16 70 -3 11 -7 31 -10 44 -3
13 -12 51 -20 85 -9 34 -17 70 -19 81 -2 11 -9 38 -14 60 -17 66 -62 258 -67
280 -4 21 -8 38 -23 98 -5 20 -7 37 -5 37 3 0 0 8 -5 18 -5 9 -11 31 -14 47
-2 17 -10 50 -17 75 -13 50 -17 68 -26 120 -6 34 -3 37 50 75 31 22 56 43 56
48 0 4 4 7 10 7 5 0 68 45 140 100 72 55 135 100 140 100 4 0 10 3 12 8 4 9
135 112 143 112 3 0 14 8 24 18 10 9 35 28 55 42 20 14 47 33 59 44 12 10 33
26 47 34 14 9 29 22 33 29 4 7 12 13 17 13 6 0 20 9 32 19 13 11 82 63 153
116 72 53 142 105 156 116 26 19 26 23 23 107 -3 89 -11 193 -19 247 -2 17 -7
55 -10 85 -13 101 -15 110 -31 178 -8 37 -17 76 -20 87 -8 40 -13 61 -23 93
-5 17 -7 32 -4 32 3 0 0 7 -7 15 -7 9 -10 18 -7 22 4 3 3 11 -1 17 -8 10 -46
122 -47 138 0 3 -3 10 -7 14 -5 4 -8 13 -8 20 0 8 -11 38 -25 68 -14 30 -25
58 -25 61 0 3 -9 27 -21 53 -77 173 -139 282 -160 282 -13 0 -156 -46 -239
-77 -8 -3 -19 -7 -25 -9 -5 -1 -57 -19 -115 -39 -58 -21 -193 -67 -301 -104
-208 -72 -222 -78 -214 -90 17 -28 26 -435 12 -541 -20 -150 -21 -158 -32
-210 -3 -14 -7 -36 -10 -49 -11 -59 -48 -199 -61 -233 -7 -21 -11 -38 -7 -38
4 0 2 -5 -5 -12 -7 -7 -12 -20 -12 -30 0 -10 -4 -26 -10 -36 -5 -9 -33 -78
-62 -152 -29 -74 -56 -136 -60 -138 -4 -2 -8 -8 -8 -13 0 -20 -122 -254 -162
-311 -11 -16 -16 -28 -11 -28 4 0 3 -4 -3 -8 -5 -4 -27 -35 -47 -69 l-38 -62
-27 27 c-25 23 -108 97 -176 155 -53 45 -142 124 -161 142 -12 11 -48 40 -81
65 -32 24 -82 63 -110 85 -28 22 -63 49 -78 60 -15 11 -37 28 -49 39 -12 10
-42 32 -67 49 -25 17 -49 37 -53 44 -4 7 -14 13 -22 13 -7 0 -15 3 -17 8 -1 4
-23 23 -48 42 -25 19 -50 39 -57 45 -21 17 -33 27 -195 149 -87 65 -163 125
-169 132 -6 8 -17 14 -24 14 -8 0 -15 4 -17 8 -1 4 -23 23 -48 42 -25 19 -47
37 -50 40 -3 3 -23 18 -45 35 -22 16 -45 34 -52 40 -6 5 -28 21 -47 35 -20 14
-36 28 -36 32 0 4 12 20 26 35 14 15 45 50 68 76 22 27 54 63 69 80 16 18 48
54 70 81 23 27 54 63 70 80 15 17 27 34 27 39 0 4 5 5 10 2 6 -3 10 -2 10 3 0
5 9 20 21 33 19 23 103 118 124 143 6 6 46 52 89 101 43 50 94 107 113 128
l35 37 -30 28 c-30 28 -69 62 -157 135 -27 23 -56 49 -65 57 -31 31 -73 60
-84 59 -6 0 -33 -11 -59 -24z"/>
<path d="M20 6822 c0 -5 11 -14 25 -20 14 -6 25 -16 25 -22 0 -5 5 -10 11 -10
10 0 32 -16 109 -77 8 -7 44 -33 80 -60 36 -26 67 -50 70 -53 3 -3 21 -17 40
-30 19 -13 37 -27 40 -30 3 -3 21 -17 40 -30 19 -13 37 -27 40 -30 3 -3 21
-17 40 -30 19 -13 37 -27 40 -30 3 -4 104 -80 225 -171 121 -90 226 -170 234
-177 8 -7 26 -21 40 -30 14 -9 33 -23 41 -29 16 -13 529 -402 569 -431 56 -41
117 -87 128 -97 19 -16 29 -23 178 -134 77 -57 142 -107 145 -110 3 -3 28 -22
55 -41 48 -33 61 -43 107 -82 12 -10 24 -18 27 -18 3 0 22 -14 41 -31 19 -17
47 -38 62 -47 28 -16 45 -42 28 -42 -6 0 -10 -4 -10 -9 0 -5 -22 -42 -48 -83
-27 -40 -67 -102 -90 -138 -22 -36 -194 -306 -381 -600 -187 -294 -344 -540
-350 -547 -6 -7 -11 -14 -11 -17 0 -5 -57 -96 -90 -146 -18 -26 -144 -225
-180 -284 -19 -32 -43 -66 -52 -78 -10 -11 -20 -29 -23 -39 -4 -11 -11 -19
-16 -19 -5 0 -9 -6 -9 -13 0 -7 -7 -22 -15 -32 -9 -11 -47 -69 -85 -130 -38
-60 -74 -115 -79 -122 -6 -7 -11 -15 -11 -18 0 -3 -18 -33 -40 -66 -22 -33
-40 -64 -40 -69 0 -5 -4 -10 -8 -12 -4 -1 -30 -39 -57 -83 -27 -44 -55 -86
-62 -93 -7 -7 -13 -20 -13 -28 0 -8 -3 -14 -8 -14 -4 0 -12 -9 -17 -20 -10
-21 -277 -441 -373 -588 -31 -48 -51 -87 -46 -92 5 -5 31 6 59 26 28 18 56 34
63 34 6 0 12 3 12 8 0 4 13 13 28 20 16 6 38 21 50 32 12 11 25 20 29 20 5 0
32 16 60 35 29 19 55 35 58 35 4 0 21 11 39 25 18 14 36 25 39 25 3 0 32 17
64 38 32 20 67 42 78 49 11 7 83 51 160 99 292 181 297 184 289 203 -33 74
-43 124 -44 201 0 105 32 269 71 365 7 17 13 35 14 41 9 41 145 315 171 345 8
8 14 21 14 28 0 6 7 14 15 17 8 4 13 10 10 14 -3 4 2 13 10 20 8 7 15 18 15
25 0 8 3 15 8 17 4 2 24 28 44 58 21 30 48 67 60 82 13 14 39 46 58 70 47 59
245 256 300 299 58 46 200 140 200 132 0 -3 6 0 14 6 11 9 19 9 35 -1 12 -7
21 -16 21 -19 0 -3 10 -6 22 -5 15 1 34 19 60 56 21 30 41 60 46 65 4 6 23 34
42 63 19 28 39 52 45 52 5 -1 33 -14 60 -30 126 -75 416 -200 463 -200 10 0
22 -3 26 -7 3 -4 12 -8 19 -9 7 -1 46 -9 88 -18 74 -15 133 -24 214 -31 22 -1
42 -4 45 -5 3 -1 9 -2 13 -1 4 1 60 3 125 6 64 2 126 6 137 9 11 2 40 7 65 11
25 4 81 16 125 27 98 24 96 24 115 31 8 3 42 15 75 27 33 11 76 28 95 36 79
35 125 58 130 63 3 3 11 7 18 9 8 1 46 21 85 44 40 22 81 46 92 52 17 9 129
84 215 143 30 21 106 76 140 103 66 51 75 59 70 62 -14 10 -200 172 -240 208
-9 8 -36 32 -60 54 -70 60 -540 518 -1088 1058 -29 28 -60 53 -70 54 -17 3
-28 -8 -201 -195 -47 -51 -108 -118 -136 -147 -64 -68 -212 -228 -256 -277
l-34 -37 -25 23 c-14 12 -72 63 -130 112 -57 50 -111 97 -120 105 -9 8 -45 40
-80 70 -35 30 -70 62 -79 71 -9 8 -45 40 -81 70 -35 30 -83 72 -106 94 -24 22
-55 50 -71 62 -15 12 -44 36 -63 54 -19 18 -63 56 -96 85 l-62 52 25 28 c42
50 57 67 147 169 49 55 96 107 105 117 9 9 34 37 56 63 22 26 54 61 70 79 17
18 43 48 59 67 63 73 163 185 193 219 18 19 33 38 33 43 0 4 -605 7 -1345 7
-740 0 -1345 -4 -1345 -8z"/>
<path d="M2570 4100 c-17 -27 -38 -54 -45 -60 -8 -7 -12 -16 -9 -21 3 -5 1 -9
-3 -9 -5 0 -19 -18 -33 -40 -14 -22 -28 -40 -32 -40 -4 0 -10 -9 -13 -21 -7
-20 -7 -20 -40 5 -19 15 -44 26 -57 26 -24 0 -140 -75 -224 -145 -49 -40 -221
-211 -259 -256 -28 -33 -127 -163 -143 -185 -74 -110 -182 -288 -182 -302 0
-4 -12 -29 -26 -56 -14 -27 -27 -54 -29 -60 -1 -6 -8 -24 -15 -41 -7 -16 -14
-34 -16 -40 -1 -5 -12 -37 -24 -70 -12 -33 -24 -69 -26 -80 -3 -11 -10 -42
-16 -70 -19 -87 -17 -233 3 -289 10 -27 24 -53 31 -57 12 -8 56 14 170 85 356
222 427 266 432 266 4 0 16 9 28 20 12 11 28 20 35 20 7 0 13 4 13 9 0 5 8 12
18 15 18 6 118 67 139 86 7 5 17 10 22 10 5 0 16 6 23 13 7 7 54 36 103 66 96
57 136 98 196 206 18 33 38 63 43 67 6 4 7 8 2 8 -4 0 -1 11 8 25 9 13 16 31
16 40 0 8 5 15 10 15 6 0 10 5 10 11 0 6 6 25 14 42 25 59 45 112 56 152 14
49 17 58 20 67 1 4 8 32 15 63 l13 55 -44 32 c-24 17 -44 34 -44 38 0 3 10 20
23 37 69 94 66 92 89 70 20 -20 139 -97 149 -97 5 0 9 -4 9 -9 0 -5 11 -12 25
-15 14 -4 25 -11 25 -16 0 -6 6 -10 14 -10 8 0 21 -6 28 -13 22 -21 289 -151
307 -150 15 1 279 158 291 173 3 4 12 10 20 14 19 9 25 12 190 115 154 96 145
89 138 97 -3 3 -35 0 -69 -6 -35 -7 -75 -13 -89 -15 -14 -2 -25 -4 -25 -5 0
-1 -16 -3 -35 -4 -20 -1 -40 -5 -45 -8 -13 -7 -325 -2 -385 6 -128 19 -346 81
-455 131 -95 43 -251 119 -255 124 -3 4 -17 12 -32 18 -25 11 -28 10 -58 -37z"/>
<path d="M2844 3717 c-3 -9 -7 -30 -9 -49 -2 -18 -4 -33 -5 -33 -1 0 -3 -13
-4 -30 -3 -29 -40 -175 -53 -205 -3 -8 -7 -17 -7 -20 -5 -22 -60 -145 -108
-240 -32 -63 -58 -116 -58 -116 0 -16 105 42 276 154 10 6 26 15 34 19 8 4 17
9 20 13 8 10 191 120 200 120 5 0 10 4 12 8 2 5 29 24 61 43 32 19 74 44 94
55 l35 21 -103 53 c-57 29 -117 61 -134 71 -16 10 -41 24 -55 31 -14 7 -56 34
-95 59 -98 64 -94 62 -101 46z"/>
<path d="M6016 3474 c-59 -30 -114 -54 -121 -54 -7 0 -15 -3 -17 -7 -7 -18
-389 -146 -496 -167 -23 -4 -14 -18 25 -38 21 -11 49 -27 62 -35 13 -9 53 -31
88 -49 96 -51 107 -58 115 -69 4 -5 8 -6 8 -2 0 5 12 0 28 -11 15 -10 92 -55
172 -98 80 -43 153 -83 162 -89 29 -17 111 -62 158 -86 25 -13 47 -26 50 -29
5 -5 21 -14 145 -80 33 -18 62 -36 63 -41 2 -5 12 -9 23 -9 10 0 19 -4 19 -8
0 -5 25 -19 55 -33 30 -13 55 -27 55 -30 0 -4 15 -13 33 -20 17 -7 55 -26 82
-43 28 -16 73 -41 100 -56 80 -43 129 -71 143 -82 6 -6 12 -8 12 -5 0 4 16 -5
36 -18 19 -13 44 -27 55 -30 10 -4 19 -10 19 -15 0 -4 14 -10 30 -12 25 -4 30
-2 24 11 -3 9 -8 30 -11 46 -7 38 -9 46 -16 65 -3 8 -15 58 -27 110 -18 80
-24 107 -35 150 0 3 -4 23 -9 45 -6 34 -28 60 -144 173 -168 164 -263 252
-377 347 -26 22 -65 56 -85 75 -21 19 -55 49 -77 67 -21 17 -55 47 -77 67 -21
20 -40 36 -42 36 -2 0 -22 18 -46 40 -24 22 -50 40 -58 39 -8 0 -64 -25 -124
-55z"/>
</g>
</svg>
